<!DOCTYPE svg PUBLIC "-//W3C//DTD SVG 1.1//EN" "http://www.w3.org/Graphics/SVG/1.1/DTD/svg11.dtd">
<!-- Uploaded to: SVG Repo, www.svgrepo.com, Transformed by: SVG Repo Mixer Tools -->
<svg fill="#A1A1A1" width="800px" height="800px" viewBox="0 0 32 32" version="1.1" xmlns="http://www.w3.org/2000/svg" stroke="#A1A1A1">
<g id="SVGRepo_bgCarrier" stroke-width="0"/>
<g id="SVGRepo_tracerCarrier" stroke-linecap="round" stroke-linejoin="round"/>
<g id="SVGRepo_iconCarrier"> <title>layers-plus</title> <path d="M30.295 15.311l-13.999-6c-0.087-0.038-0.189-0.060-0.296-0.060s-0.209 0.022-0.301 0.062l0.005-0.002-14 6c-0.269 0.118-0.454 0.382-0.454 0.689s0.185 0.572 0.449 0.688l0.005 0.002 14 6c0.087 0.038 0.189 0.061 0.296 0.061s0.209-0.022 0.301-0.062l-0.005 0.002 13.999-6c0.27-0.117 0.455-0.382 0.455-0.689s-0.185-0.572-0.45-0.688l-0.005-0.002zM16 21.184l-12.096-5.184 12.096-5.184 12.096 5.184zM30.295 23.311l-4-1.715c-0.087-0.038-0.189-0.061-0.296-0.061-0.414 0-0.75 0.336-0.75 0.75 0 0.308 0.186 0.572 0.451 0.688l0.005 0.002 2.391 1.025-12.096 5.184-12.097-5.184 2.393-1.025c0.269-0.118 0.454-0.382 0.454-0.689 0-0.414-0.336-0.75-0.75-0.75-0.107 0-0.209 0.022-0.301 0.063l0.005-0.002-4 1.715c-0.269 0.118-0.454 0.382-0.454 0.689s0.185 0.572 0.449 0.688l0.005 0.002 14 6c0.087 0.038 0.189 0.061 0.296 0.061s0.209-0.022 0.301-0.062l-0.005 0.002 13.999-6c0.27-0.117 0.455-0.382 0.455-0.689s-0.185-0.572-0.45-0.688l-0.005-0.002zM23.777 5.861h2.361v2.36c0 0.414 0.336 0.75 0.75 0.75s0.75-0.336 0.75-0.75v0-2.36h2.361c0.414 0 0.75-0.336 0.75-0.75s-0.336-0.75-0.75-0.75v0h-2.361v-2.361c0-0.414-0.336-0.75-0.75-0.75s-0.75 0.336-0.75 0.75v0 2.361h-2.361c-0.414 0-0.75 0.336-0.75 0.75s0.336 0.75 0.75 0.75v0z"/> </g>
</svg>